<?xml version="1.0" standalone="no"?>
<!DOCTYPE svg PUBLIC "-//W3C//DTD SVG 20010904//EN"
 "http://www.w3.org/TR/2001/REC-SVG-20010904/DTD/svg10.dtd">
<svg version="1.0" xmlns="http://www.w3.org/2000/svg"
 width="16.000000pt" height="16.000000pt" viewBox="0 0 16.000000 16.000000"
 preserveAspectRatio="xMidYMid meet">
<metadata>
Created by potrace 1.11, written by Peter Selinger 2001-2013
</metadata>
<g transform="translate(0.000000,16.000000) scale(0.006154,-0.006154)"
fill="#000000" stroke="none">
<path d="M1890 2589 c0 -6 18 -28 40 -48 46 -42 51 -61 14 -61 -31 0 -28 -23
4 -28 21 -3 42 -50 42 -94 0 -24 -7 -23 -42 7 -17 14 -38 25 -47 23 -21 -4
-26 -51 -7 -68 9 -7 16 -21 16 -31 0 -10 9 -23 20 -29 11 -6 20 -15 20 -20 0
-15 -40 -12 -56 5 -19 18 -61 20 -67 3 -2 -7 6 -24 18 -38 13 -14 34 -45 47
-70 18 -34 30 -46 54 -51 42 -8 54 -17 54 -40 0 -21 -20 -25 -38 -7 -10 10
-17 10 -32 0 -17 -10 -26 -7 -64 19 -35 25 -47 29 -62 20 -11 -6 -13 -11 -6
-11 6 0 12 -5 12 -11 0 -6 9 -24 20 -40 17 -23 19 -33 10 -49 -12 -22 -21 -25
-36 -10 -11 11 -54 2 -54 -11 0 -5 16 -26 36 -46 53 -56 63 -74 57 -110 -6
-36 -19 -41 -49 -18 -20 15 -56 20 -67 9 -3 -4 0 -16 8 -28 17 -23 20 -66 5
-66 -23 0 -7 -30 27 -51 30 -19 49 -23 94 -21 69 4 95 -15 104 -75 7 -42 6
-43 -22 -43 -16 0 -34 -5 -40 -11 -8 -8 -19 -9 -40 -1 -15 6 -64 24 -108 41
-90 35 -105 37 -105 17 0 -18 47 -56 70 -56 9 0 27 -11 40 -25 22 -23 22 -26
7 -38 -11 -7 -16 -22 -15 -37 2 -21 -2 -26 -24 -28 -14 -2 -32 -10 -39 -18
-10 -12 -6 -21 19 -47 35 -36 39 -47 17 -47 -8 0 -19 -10 -26 -21 -9 -17 -8
-25 4 -37 13 -13 22 -13 59 -3 50 14 89 4 117 -31 12 -14 30 -21 56 -22 26 -1
42 -7 51 -21 12 -18 9 -25 -22 -62 -20 -24 -39 -43 -43 -43 -4 0 -29 20 -56
45 -56 50 -71 56 -61 23 17 -56 18 -56 -64 -43 -71 11 -79 -33 -12 -65 24 -11
32 -22 32 -42 0 -16 -6 -28 -12 -28 -7 0 -20 -5 -28 -10 -13 -8 -12 -11 5 -24
11 -9 32 -16 46 -16 14 0 34 -9 44 -20 10 -11 32 -24 49 -28 16 -4 32 -14 34
-21 3 -10 -11 -11 -67 -5 -44 4 -71 3 -71 -3 0 -11 43 -33 64 -33 8 0 27 -7
42 -15 16 -8 38 -15 49 -15 16 -1 13 -7 -20 -36 -22 -20 -61 -50 -87 -67 -27
-16 -48 -34 -48 -39 0 -12 -38 -10 -45 2 -4 6 9 26 29 44 20 18 36 35 36 39 0
14 -41 7 -80 -13 -50 -25 -53 -25 -67 6 -11 23 -10 31 8 56 21 28 19 66 -2 53
-6 -4 -26 1 -44 11 -29 15 -33 22 -28 48 4 26 -2 37 -36 69 -23 21 -41 44 -41
50 0 17 50 57 71 57 29 0 31 17 4 46 -19 20 -34 27 -64 27 -31 0 -42 5 -52 24
-19 35 -1 56 57 67 55 10 63 17 56 51 -4 25 -39 40 -57 25 -12 -10 -33 -9 -52
3 -20 13 -15 41 10 52 15 7 23 20 25 42 3 26 -1 32 -19 35 -30 4 -53 66 -33
89 8 8 17 30 20 48 6 30 5 33 -14 27 -19 -6 -20 -3 -20 49 1 54 -5 75 -18 62
-3 -3 -5 -46 -5 -96 1 -86 0 -91 -20 -91 -16 0 -19 -4 -14 -22 4 -13 15 -32
25 -43 13 -16 16 -32 11 -80 -4 -39 -10 -60 -18 -59 -7 1 -22 2 -33 3 -11 0
-26 15 -35 31 -22 42 -38 28 -32 -27 6 -55 17 -67 61 -65 60 2 90 -58 67 -138
-4 -15 -14 -24 -23 -22 -10 1 -15 -4 -14 -15 0 -12 -7 -19 -21 -21 -20 -3 -23
1 -23 31 0 41 -24 56 -51 32 -13 -12 -15 -23 -9 -44 12 -43 33 -71 57 -77 32
-8 35 -30 7 -49 -29 -19 -26 -27 21 -49 22 -11 35 -24 35 -36 0 -27 -23 -25
-58 5 -32 26 -57 32 -67 15 -4 -6 -1 -17 5 -25 9 -11 9 -18 -4 -30 -9 -9 -16
-22 -16 -30 0 -7 -5 -15 -11 -17 -6 -2 -1 -14 10 -27 24 -28 25 -33 9 -49 -9
-9 -8 -16 5 -30 22 -24 21 -29 -3 -35 -31 -8 -24 -24 13 -31 21 -4 47 -1 68 8
40 17 69 6 69 -27 0 -27 -44 -77 -69 -77 -41 0 -126 21 -141 35 -21 19 -64 19
-84 0 -8 -8 -19 -15 -25 -15 -26 0 -7 -21 49 -56 59 -36 74 -54 45 -54 -26 0
-16 -27 15 -40 38 -16 45 -27 29 -46 -9 -11 -9 -18 -1 -26 18 -18 14 -26 -15
-33 -44 -10 -68 -32 -54 -48 6 -8 9 -21 5 -30 -3 -8 -1 -18 5 -22 23 -13 10
-25 -28 -25 -50 0 -60 -15 -24 -34 15 -8 36 -24 45 -35 17 -20 28 -21 203 -21
122 0 184 3 180 10 -8 13 43 58 75 66 14 4 30 11 36 16 8 6 22 0 40 -16 28
-24 28 -25 10 -44 -10 -12 -28 -23 -40 -25 -11 -2 77 -5 197 -6 207 -1 217 0
217 18 0 24 25 34 51 21 22 -12 25 -26 7 -33 -7 -3 62 -6 155 -6 l167 -1 0
110 c0 61 -4 110 -8 110 -5 0 -16 -8 -25 -18 -13 -14 -33 -19 -79 -20 -35 -1
-69 2 -76 7 -24 15 -3 58 36 77 21 9 43 21 50 27 8 6 34 10 58 8 l44 -3 0 100
c0 96 -1 99 -25 110 -23 11 -29 9 -50 -15 l-24 -28 -22 24 -23 24 22 15 c30
20 28 32 -5 32 -38 0 -91 -20 -132 -49 -23 -16 -52 -26 -88 -29 -52 -4 -53 -4
-53 22 0 29 39 76 63 76 8 0 31 14 52 30 36 29 42 30 97 24 66 -8 74 2 32 41
-33 31 -26 55 16 55 24 0 30 4 30 22 0 12 7 29 16 39 31 34 -10 81 -43 48 -8
-8 -17 -8 -31 0 -11 6 -30 11 -41 11 -28 0 -37 20 -13 27 11 3 23 11 26 19 3
8 12 14 19 14 8 0 21 8 31 19 15 16 15 20 1 31 -8 7 -25 10 -36 7 -28 -7 -14
5 31 30 38 21 52 62 29 89 -13 15 -50 19 -65 5 -5 -4 -36 -15 -70 -25 -105
-28 -134 -19 -134 41 0 33 1 34 35 27 27 -5 36 -3 41 10 5 13 14 15 35 11 24
-6 34 -1 60 27 17 18 42 44 55 58 13 14 24 28 24 31 0 4 -21 10 -47 15 -27 4
-52 8 -58 9 -5 1 -16 3 -22 3 -22 3 -14 32 8 32 31 0 59 19 70 47 7 19 6 28
-2 34 -16 9 6 39 27 39 8 0 14 10 14 21 0 18 -4 20 -27 16 -32 -6 -134 -31
-176 -42 -25 -7 -28 -5 -25 11 1 11 19 27 38 37 20 10 34 23 32 32 -4 22 11
45 66 101 66 67 80 93 58 110 -14 10 -15 16 -5 32 13 20 7 52 -10 52 -5 0 -24
-20 -42 -45 -34 -47 -57 -59 -105 -53 -40 4 -36 19 15 47 l44 24 -23 19 c-26
21 -25 22 32 53 26 15 46 51 34 63 -4 3 -21 0 -39 -7 -18 -7 -53 -18 -79 -24
-43 -10 -49 -9 -62 8 -10 14 -11 26 -3 49 16 49 31 59 99 63 81 4 88 7 88 37
0 15 -7 25 -20 29 l-21 5 21 34 c42 69 6 81 -55 18 -38 -39 -66 -48 -94 -31
-11 7 -13 25 -8 83 6 59 11 76 29 88 43 30 98 91 98 109 0 30 -27 33 -50 4
-11 -14 -20 -29 -20 -32 0 -9 -60 -44 -66 -38 -10 10 -2 95 10 115 4 7 5 16 2
21 -3 5 10 21 29 36 47 35 71 73 57 87 -7 7 -19 1 -42 -22 -37 -37 -60 -34
-60 10 0 23 -5 30 -19 30 -10 0 -22 -7 -25 -16 -6 -16 -8 -16 -24 0 -21 18
-72 22 -72 5z m98 -671 c4 -63 -15 -63 -63 2 -30 40 -24 52 23 48 36 -3 37 -4
40 -50z m100 -89 c14 0 13 -2 -3 -9 -36 -16 -47 -12 -33 10 7 11 14 16 16 10
2 -5 11 -10 20 -11z m-205 -483 c32 -13 47 -25 47 -37 0 -27 -18 -33 -45 -15
-13 9 -33 16 -43 16 -12 0 -22 9 -25 22 -6 22 0 41 11 36 4 -2 28 -11 55 -22z
m-405 -323 c2 -8 -5 -13 -17 -13 -12 0 -21 6 -21 16 0 18 31 15 38 -3z m503
-103 c9 -19 20 -50 24 -68 6 -31 5 -33 -12 -24 -10 5 -23 7 -29 5 -6 -2 -19 8
-28 22 -10 15 -31 31 -47 37 -32 11 -40 38 -11 38 9 0 26 7 37 16 28 21 45 14
66 -26z m189 0 c0 -21 -63 -60 -76 -47 -12 11 6 55 24 60 38 10 52 7 52 -13z
m7 -136 c3 -8 -1 -22 -9 -30 -12 -12 -20 -13 -41 -3 -26 12 -26 13 -11 31 21
22 53 24 61 2z m-669 -50 c27 -19 28 -55 3 -78 -28 -26 -41 -12 -41 45 0 53 4
57 38 33z m-105 -30 c3 -4 -1 -20 -9 -35 -12 -24 -18 -27 -33 -20 -10 6 -24
17 -31 26 -12 14 -11 18 1 26 16 10 63 12 72 3z m509 -111 c-3 -17 1 -30 12
-38 9 -7 20 -30 23 -51 6 -38 6 -39 -14 -22 -10 10 -35 23 -54 29 -62 21 -63
28 -11 70 25 21 47 39 48 39 1 0 -1 -12 -4 -27z m-177 -59 c36 -23 31 -41 -14
-55 -49 -15 -71 -7 -71 25 0 22 15 33 58 45 1 1 14 -6 27 -15z m-205 -19 c7
-8 23 -15 36 -15 26 0 41 -17 27 -31 -5 -5 -39 -11 -75 -14 -72 -5 -84 5 -67
53 10 26 59 31 79 7z m-187 -223 c28 -48 7 -58 -48 -23 -40 24 -42 27 -27 44
23 26 53 17 75 -21z m373 -40 c31 -25 40 -61 17 -68 -10 -3 -27 -10 -38 -14
-11 -5 -49 -11 -85 -14 -36 -3 -78 -7 -95 -8 -25 -3 -31 1 -33 22 -3 18 6 33
40 62 40 35 47 37 108 37 47 1 71 -4 86 -17z m-364 -89 c18 -17 23 -39 12 -67
-13 -34 -107 -15 -167 33 -17 14 -17 16 5 33 31 24 124 25 150 1z m843 7 c3
-5 1 -10 -4 -10 -6 0 -11 5 -11 10 0 6 2 10 4 10 3 0 8 -4 11 -10z m-76 -64
c10 -12 8 -17 -9 -26 -26 -14 -34 -8 -25 19 7 25 18 27 34 7z"/>
</g>
</svg>
